<svg xmlns="http://www.w3.org/2000/svg" xmlns:xlink="http://www.w3.org/1999/xlink" viewBox="0 0 48 48"><path fill="#90caf9" d="M40 45L8 45 8 3 30 3 40 13z"/><path fill="#e1f5fe" d="M38.5 14L29 14 29 4.5z"/><path fill="#e57373" d="M47.678,29.141l-2.82-2.818c-0.429-0.43-1.126-0.43-1.555,0l-1.328,1.328l4.376,4.375l1.327-1.328C48.107,30.268,48.107,29.572,47.678,29.141"/><path fill="#ff9800" d="M27.109 35.088H44.526V41.276H27.109z" transform="rotate(-45.001 35.82 38.183)"/><path fill="#b0bec5" d="M41.522 27.836H44.616V34.025H41.522z" transform="rotate(134.999 43.069 30.93)"/><path fill="#ffc107" d="M27.473 42.152L26 48 31.848 46.527z"/><path fill="#37474f" d="M26.744 45.043L26 48 28.956 47.256z"/></svg>