<svg xmlns="http://www.w3.org/2000/svg" xmlns:xlink="http://www.w3.org/1999/xlink" viewBox="0 0 24 24" fill="#0065CD">
  <path d="M12 3L2 5L2 19L12 21L12 3 z M 14 5L14 7L20 7L20 9L14 9L14 11L20 11L20 13L14 13L14 15L20 15L20 17L14 17L14 19L21 19C21.552 19 22 18.552 22 18L22 6C22 5.448 21.552 5 21 5L14 5 z M 3.2949219 8.2949219L4.8300781 8.2949219L5.3222656 11.773438C5.3572656 11.982437 5.3845781 12.267141 5.3925781 12.619141L5.4179688 12.619141C5.4259688 12.362141 5.4624375 12.068906 5.5234375 11.753906L6.1542969 8.2949219L8.0234375 8.2949219L8.6074219 11.742188C8.6424219 11.923187 8.6673594 12.189203 8.6933594 12.533203L8.7128906 12.533203C8.7208906 12.266203 8.74725 11.989125 8.78125 11.703125L9.2597656 8.2949219L10.703125 8.2949219L9.3203125 15.705078L8.0058594 15.705078L7.1269531 11.744141C7.0829531 11.497141 7.0588281 11.219062 7.0488281 10.914062L7.03125 10.914062C7.01325 11.247063 6.9785469 11.524141 6.9355469 11.744141L6.0390625 15.705078L4.671875 15.705078L3.2949219 8.2949219 z" fill="#0065CD" />
</svg>