<svg xmlns="http://www.w3.org/2000/svg" xmlns:xlink="http://www.w3.org/1999/xlink" viewBox="0 0 24 24" fill="#111111">
  <path d="M4 4C2.976 4 2.1404375 4.772625 2.0234375 5.765625L12 12L21.976562 5.765625C21.859563 4.772625 21.024 4 20 4L4 4 z M 2 7.7519531L2 14.171875L2.8789062 13.292969C3.0659062 13.104969 3.3209375 13 3.5859375 13L5 13C5.552 13 6 13.448 6 14L6 16.074219C8.016 16.365219 10.355922 17.54 11.419922 20L20 20C21.105 20 22 19.105 22 18L22 7.7519531L12 14L2 7.7519531 z M 4 15L0 19L4 23L4 20L5 20C5 20 5.7912483 20.01379 6.5527344 20.394531C7.3142205 20.775274 8 21.333333 8 23L8 24L10 24L10 23C10 20.666667 8.6857795 19.224726 7.4472656 18.605469C6.2087517 17.986212 5 18 5 18L4 18L4 15 z" fill="#111111" />
</svg>
