<svg xmlns="http://www.w3.org/2000/svg" xmlns:xlink="http://www.w3.org/1999/xlink" viewBox="0 0 50 50" fill="#FFFFFF">
  <path d="M27.4375 2C23.9375 2 21.183594 3.304688 19.65625 5.65625C18.390625 7.605469 18.132813 10.097656 18.96875 12.4375C18.675781 12.882813 18.5 13.507813 18.59375 14.28125C18.785156 15.894531 19.417969 16.605469 19.96875 16.9375C20.273438 18.191406 21.058594 19.535156 21.78125 20.25C21.777344 21.050781 21.75 21.679688 21.53125 22.53125C21.171875 23.503906 19.636719 24.105469 18.03125 24.75L17.375 25L12 25C11.96875 25 11.9375 25 11.90625 25C11.605469 25.03125 11.332031 25.199219 11.167969 25.453125C11.003906 25.710938 10.964844 26.023438 11.0625 26.3125C11.0625 26.3125 11.792969 28.59375 11.96875 31L8 31C7.449219 31 7 31.445313 7 32L7 34L6 34L6 33C6.007813 32.691406 5.871094 32.398438 5.632813 32.203125C5.398438 32.007813 5.082031 31.933594 4.78125 32C4.316406 32.105469 3.988281 32.523438 4 33L4 34.6875C3.941406 34.882813 3.941406 35.085938 4 35.28125L4 37C3.996094 37.359375 4.183594 37.695313 4.496094 37.878906C4.808594 38.058594 5.191406 38.058594 5.503906 37.878906C5.816406 37.695313 6.003906 37.359375 6 37L6 36L7 36L7 38C7 38.554688 7.449219 39 8 39L44 39C44.554688 39 45 38.554688 45 38L45 32C45 31.445313 44.554688 31 44 31L40.03125 31C40.207031 28.5625 40.9375 26.3125 40.9375 26.3125C41.035156 26.011719 40.988281 25.679688 40.800781 25.417969C40.617188 25.160156 40.320313 25.003906 40 25L34.625 25L34 24.75C32.398438 24.105469 30.875 23.496094 30.53125 22.5625C30.25 21.6875 30.21875 21.046875 30.21875 20.25C30.941406 19.535156 31.726563 18.191406 32.03125 16.9375C32.582031 16.609375 33.214844 15.894531 33.40625 14.28125C33.488281 13.578125 33.375 12.914063 33.09375 12.4375C33.703125 10.886719 33.691406 8.328125 32.71875 6.34375C31.902344 4.679688 30.539063 3.695313 28.8125 3.5L28.34375 2.5625C28.171875 2.222656 27.816406 2 27.4375 2 Z M 13.28125 27L38.6875 27C38.425781 27.96875 38.125 29.332031 38.03125 31L13.96875 31C13.867188 29.347656 13.539063 27.96875 13.28125 27 Z M 9 41L9 47C9 47.554688 9.449219 48 10 48L42 48C42.554688 48 43 47.554688 43 47L43 41Z" fill="#FFFFFF" />
</svg>