<svg xmlns="http://www.w3.org/2000/svg" xmlns:xlink="http://www.w3.org/1999/xlink" viewBox="0 0 30 30" fill="#F27323">
  <path d="M26,5H4C2.895,5,2,5.895,2,7v16c0,1.105,0.895,2,2,2h22c1.105,0,2-0.895,2-2V7C28,5.895,27.105,5,26,5z M9.662,18.972 c1.027,0.169,1.942-0.45,2.238-1.347C12.029,17.235,12.429,17,12.839,17c0.672,0,1.164,0.664,0.945,1.299 c-0.581,1.688-2.263,2.868-4.183,2.681C7.522,20.778,6,18.91,6,16.822v-3.644C6,11.09,7.522,9.222,9.6,9.02 c1.92-0.187,3.602,0.993,4.183,2.681C14.002,12.336,13.511,13,12.839,13c-0.41,0-0.81-0.235-0.939-0.625 c-0.296-0.898-1.211-1.516-2.238-1.347C8.679,11.19,8,12.115,8,13.112v3.776C8,17.885,8.679,18.81,9.662,18.972z M19.662,18.972 c1.027,0.169,1.942-0.45,2.238-1.347C22.029,17.235,22.429,17,22.839,17c0.672,0,1.164,0.664,0.945,1.299 c-0.581,1.688-2.263,2.868-4.183,2.681c-2.078-0.203-3.6-2.071-3.6-4.159v-3.644c0-2.088,1.522-3.956,3.6-4.159 c1.92-0.187,3.602,0.993,4.183,2.681C24.002,12.336,23.511,13,22.839,13c-0.41,0-0.81-0.235-0.939-0.625 c-0.296-0.898-1.211-1.516-2.238-1.347C18.679,11.19,18,12.115,18,13.112v3.776C18,17.885,18.679,18.81,19.662,18.972z" fill="#F27323" />
</svg>
