<svg xmlns="http://www.w3.org/2000/svg" xmlns:xlink="http://www.w3.org/1999/xlink" viewBox="0 0 30 30" fill="#FFFFFF">
  <path d="M5 3 A 1 1 0 0 0 4 4 A 1 1 0 0 0 4.0371094 4.2675781 A 1 1 0 0 0 4.0390625 4.2734375L5 11L2 13L23 15L2 17L5 19L4.0390625 25.728516 A 1 1 0 0 0 4 26 A 1 1 0 0 0 5 27 A 1 1 0 0 0 5.3867188 26.919922L5.3886719 26.921875L5.4316406 26.900391L5.453125 26.890625 A 1 1 0 0 0 5.4707031 26.880859L27.390625 15.921875L27.392578 15.917969 A 1 1 0 0 0 28 15 A 1 1 0 0 0 27.390625 14.080078 A 1 1 0 0 0 27.390625 14.078125L27.388672 14.078125L5.4785156 3.1230469 A 1 1 0 0 0 5.3886719 3.078125 A 1 1 0 0 0 5 3 z" fill="#FFFFFF" />
</svg>