<?xml version="1.0" encoding="utf-8"?>
<!-- Generator: Adobe Illustrator 25.0.0, SVG Export Plug-In . SVG Version: 6.00 Build 0)  -->
<svg version="1.1" id="b849a2f0-74e0-42be-b224-12e88fa50e48"
	 xmlns="http://www.w3.org/2000/svg" xmlns:xlink="http://www.w3.org/1999/xlink" x="0px" y="0px" viewBox="0 0 920.1 412"
	 style="enable-background:new 0 0 920.1 412;" xml:space="preserve">
<style type="text/css">
	.st0{fill:#E6E6E6;}
	.st1{fill:#F27323;}
	.st2{fill:#3F3D56;}
	.st3{fill:#FFB8B8;}
	.st4{fill:#2F2E41;}
	.st5{fill:#FFFFFF;}
</style>
<path class="st0" d="M436.5,410h195.6c7.7,0,7.7-12,0-12H436.5C428.8,398,428.8,410,436.5,410z"/>
<path class="st1" d="M383.7,149.2H188.8c-4.3,0-7.8,3.5-7.8,7.8v38.7c9.7,0.2,16,8.3,17.6,18v35.1h0.7c0.2,0,0.4,0.2,0.4,0.4v18.7
	c0,0.2-0.2,0.4-0.4,0.4h-0.7v112.9c0,2.5,0,7,0,7h185.2c4.3,0,7.8-3.5,7.8-7.8V157C391.5,152.7,388,149.2,383.7,149.2z"/>
<path class="st1" d="M745.9,21.8v211.9H405v-93.3c0-8.8-7.2-16-16-16h-63.9V21.8H745.9z"/>
<path class="st2" d="M766.9,263.6H405.3v-1.5h360.1V12.6c0-6.1-5-11.1-11.1-11.1H312.1c-6.1,0-11.1,5-11.1,11.1v110.9h-1.5V12.6
	c0-6.9,5.6-12.5,12.6-12.6h442.3c6.9,0,12.5,5.6,12.6,12.6V263.6z"/>
<path class="st2" d="M732.7,308.6H405.3v-1.5h327.3c18.1,0,32.8-14.7,32.8-32.8v-10.8H405.3v-1.5h361.6v12.3
	C766.9,293.3,751.6,308.6,732.7,308.6z"/>
<path class="st2" d="M635.5,381c-18.2-17.5-30.3-40.4-34.1-72.4H466.9c-1.4,29.9-13.3,52.3-34.8,72.3l-2.3,0.1
	c22.2-20.1,34.4-42.7,35.6-73.1l0-0.7h137.2l0.1,0.7c3.8,32.5,16,55.5,34.7,73.1L635.5,381z"/>
<path class="st2" d="M388.6,411.5H181.5V410h207.2c8.8,0,16-7.2,16-16V140.8c0-8.8-7.2-16-16-16H181.5c-8.8,0-16,7.2-16,16v54.7H164
	v-54.7c0-9.6,7.8-17.4,17.5-17.5h207.2c9.6,0,17.4,7.8,17.5,17.5v253.3C406.1,403.7,398.3,411.5,388.6,411.5z"/>
<path class="st2" d="M285,142c-2.8,0-5-2.2-5-5s2.2-5,5-5c2.8,0,5,2.2,5,5C290.1,139.7,287.8,142,285,142z M285,133.1
	c-2.1,0-3.8,1.7-3.8,3.8s1.7,3.8,3.8,3.8s3.8-1.7,3.8-3.8c0,0,0,0,0,0C288.9,134.9,287.2,133.1,285,133.1L285,133.1z"/>
<path class="st2" d="M285,405.9c-3.5,0-6.4-2.9-6.4-6.4c0-3.5,2.9-6.4,6.4-6.4c3.5,0,6.4,2.9,6.4,6.4
	C291.4,403,288.6,405.9,285,405.9z M285,394.6c-2.7,0-4.9,2.2-4.9,4.9s2.2,4.9,4.9,4.9s4.9-2.2,4.9-4.9c0,0,0,0,0,0
	C290,396.8,287.8,394.6,285,394.6z"/>
<path class="st2" d="M179.4,412h-68.6c-10.7,0-19.5-8.7-19.5-19.5V214.9c0-10.7,8.7-19.5,19.5-19.5h68.6c10.7,0,19.5,8.7,19.5,19.5
	v31.8c0.7,0.3,1.2,1,1.2,1.8l0,20.7c0,0.8-0.5,1.5-1.2,1.8v121.6C198.8,403.2,190.1,411.9,179.4,412z M110.8,196.9
	c-9.9,0-18,8.1-18,18v177.6c0,9.9,8.1,18,18,18h68.6c9.9,0,18-8.1,18-18V269.6h0.7c0.2,0,0.4-0.2,0.4-0.4l0-20.7
	c0-0.2-0.2-0.4-0.4-0.4h-0.7v-33.1c0-9.9-8.1-18-18-18H110.8z"/>
<path class="st1" d="M180.1,201h-9c1.4,3.4-0.2,7.3-3.6,8.7c-0.8,0.3-1.6,0.5-2.5,0.5h-39.3c-3.7,0-6.6-3-6.6-6.6
	c0-0.9,0.2-1.7,0.5-2.5h-8.4c-7.7,0-14,6.3-14,14v177.3c0,7.7,6.3,14,14,14c0,0,0,0,0,0h68.9c7.7,0,14-6.3,14-14l0,0l0,0V215
	C194.1,207.3,187.9,201,180.1,201z"/>
<path class="st2" d="M919.2,411.7H0.9c-0.5,0-0.9-0.4-0.9-0.9s0.4-0.9,0.9-0.9c0,0,0,0,0,0h918.4c0.5,0,0.9,0.4,0.9,0.9
	S919.7,411.7,919.2,411.7C919.2,411.7,919.2,411.7,919.2,411.7z"/>
<path class="st2" d="M636,411.2H431.5c-8.6,0-15.5-6.9-15.5-15.5c0-8.6,6.9-15.5,15.5-15.5H636c8.6,0,15.5,6.9,15.5,15.5
	C651.5,404.3,644.6,411.2,636,411.2z M431.5,381.7c-7.7,0-14,6.3-14,14s6.3,14,14,14l0,0H636c7.7,0,14-6.3,14-14s-6.3-14-14-14
	H431.5z"/>
<polygon class="st3" points="784.5,293.2 790.2,305.2 839.1,288.8 830.7,271.1 "/>
<path class="st4" d="M790.1,333.6l-18-37.6l0,0l14.5-7l0,0l11.6,24.2c3.5,7.4,0.4,16.3-7,19.9L790.1,333.6L790.1,333.6z"/>
<polygon class="st3" points="773,400.1 786.2,399.7 786.8,348 771.2,349 "/>
<path class="st4" d="M812,411.9h-41.7l0,0v-16.1l0,0h26.8c8.2,0,14.9,6.7,14.9,14.9V411.9L812,411.9z"/>
<path class="st4" d="M774.1,392.4c-2.3,0-4.3-1.6-4.8-3.8c-7.3-29.2-34.3-176.3-10.4-205.2l0.2-0.3l0.3-0.1
	c1.7-0.4,33.3-10.2,51.9,5.1l0.2,0.2l10.3,29.9l27.9,41.4c6.3,9.3,3.8,22-5.5,28.3c-0.2,0.1-0.3,0.2-0.5,0.3L807,311.3
	c-1.8,1.1-4.1,0.9-5.8-0.4c-0.7-0.6-1.2-1.3-1.5-2.1l-7.7-19.2c-1-2.4,0.1-5.2,2.4-6.3l17.1-8.6c0.9-0.5,1.6-1.4,1.8-2.5
	c0.1-1-0.3-1.9-1-2.5l-19.9-17.2c-1.3-1.1-3.1-0.9-4.2,0.3c-0.5,0.6-0.8,1.3-0.7,2.1l4.9,130.2c0.1,2.5-1.7,4.7-4.2,5.1l-13.5,2.1
	C774.6,392.4,774.3,392.4,774.1,392.4z"/>
<path class="st2" d="M808.4,193.4c-0.1,0-0.2,0-0.3,0l-49.6-3.7c-2.5-0.2-4.3-2.3-4.2-4.8c0-0.4,0.1-0.8,0.2-1.2
	c3.1-8.8,3.4-18.3,1.1-27.3c-3.2-12.7-3.3-36.4-3.1-49.4c0.1-4.6,3.7-8.3,8.3-8.5l0,0l1,0c8.1,0.1,22.9,0.7,35.1,3.2
	c8.4,1.7,14.5,9.1,14.7,17.7c0.3,12.1,0.3,28.4-1.1,37.7c-1.2,7.8,1,22.9,2.4,31.1c0.4,2.5-1.3,4.8-3.7,5.2
	C808.9,193.4,808.6,193.4,808.4,193.4z"/>
<path class="st3" d="M826.1,240.7c-5-2.4-7.1-8.4-4.7-13.4c0.3-0.5,0.6-1,0.9-1.5L799.4,127h17.3l20.2,96.9
	c4.3,3.5,4.9,9.9,1.4,14.2C835.3,241.7,830.3,242.7,826.1,240.7z"/>
<path class="st3" d="M717.6,137.7l27.4-26l10.3,14.5L729.5,149l33.9,26.9c0.2,0,0.5,0,0.7,0c6,0,10.9,4.8,10.9,10.8
	c0,6-4.8,10.9-10.8,10.9c-5.4,0-10-4-10.8-9.4l-0.1,0.1L718,157.7c-5.6-4.9-6.2-13.4-1.4-19C716.9,138.3,717.2,138,717.6,137.7z"/>
<path class="st2" d="M801.2,133.3c-1.7,0-3.3-1-4.1-2.6c-2.2-4.6-3.7-9.5-4.5-14.6c-1.2-8.2,4.5-13.1,10.4-14.2
	c5.7-1,12.6,1.5,14.3,9.4c0.1,0.7,0.3,1.3,0.3,2c0.7,6,1.4,10.7,2,13.9c0.5,2.4-1.1,4.8-3.6,5.2c-0.2,0-0.4,0.1-0.6,0.1l-14.1,0.7
	C801.3,133.3,801.3,133.3,801.2,133.3z"/>
<circle class="st4" cx="781.5" cy="60" r="30"/>
<circle class="st3" cx="781.7" cy="67.8" r="24.6"/>
<path class="st2" d="M738.1,121.4c-1.3-1.2-1.8-3-1.3-4.6c1.5-4.9,3.7-9.5,6.6-13.8c4.7-6.9,12.2-6.6,17.3-3.5
	c4.9,3.1,8.3,9.6,4.2,16.6c-0.3,0.6-0.7,1.2-1.1,1.7c-3.5,4.9-6.2,8.8-7.9,11.6c-1.3,2.1-4.1,2.8-6.2,1.4c-0.2-0.1-0.3-0.2-0.5-0.4
	l-10.9-9C738.2,121.5,738.2,121.4,738.1,121.4z"/>
<path class="st4" d="M775.7,33.2c-6-3.6-7.3-12.6-3.7-18.6s10.9-9.2,17.9-9.4c10-0.3,19.7,4.7,26.8,11.9s11.7,16.4,15.2,25.8
	s6.1,19.1,9.5,28.6c1.8,4.8,4,9.8,8.1,12.9s10.6,3.7,14.1-0.1c0,6.1-4.7,11.6-10.4,13.4s-12.3,0.5-17.3-2.9
	c-8.8-5.8-13-16.4-15.4-26.6s-3.6-21-8.5-30.3c-2-3.9-4.8-7.5-8.7-9.5s-9.1-1.8-12.2,1.2c-1.4,1.4-2.4,3.3-4,4.5
	c-2.1,1.3-4.7,1.6-7,0.7c-2.3-0.9-4.4-2.1-6.4-3.6"/>
<path class="st4" d="M756.1,51.2c9.7,13,28.1,15.7,41.1,6c0.3-0.3,0.7-0.5,1-0.8c2.4-1.9,4.6-4.6,4.5-7.7c-0.2-3.1-2.7-5.6-5.3-7.4
	c-6.9-4.5-15.2-6.4-23.4-5.4c-4.7,0.6-9.4,2.3-12.7,5.7s-5,8.6-3.3,13"/>
<g>
	<path class="st5" d="M172.2,333.6c-0.7,0.7-1.7,1.1-2.7,1.1c-1,0-2-0.4-2.7-1.1l-21.1-21.1l-21.1,21.1c-1.5,1.5-3.9,1.5-5.4,0
		c-0.7-0.7-1.1-1.7-1.1-2.7c0-1,0.4-2,1.1-2.7l21.1-21.1l-21.1-21.1c-1.5-1.5-1.5-3.9,0-5.4c0.7-0.7,1.7-1.1,2.7-1.1
		c1,0,2,0.4,2.7,1.1l21.1,21.1l21.1-21.1c1.5-1.5,3.9-1.5,5.4,0c0.7,0.7,1.1,1.7,1.1,2.7c0,1-0.4,2-1.1,2.7l-21.1,21.1l21.1,21.1
		C173.6,329.7,173.6,332.1,172.2,333.6z"/>
</g>
<g>
	<path class="st5" d="M315.9,303.4c-1,1-2.3,1.5-3.5,1.5c-1.3,0-2.6-0.5-3.5-1.5l-27.6-27.6l-27.6,27.6c-1.9,1.9-5.1,1.9-7.1,0
		c-1-1-1.5-2.3-1.5-3.5c0-1.3,0.5-2.6,1.5-3.5l27.6-27.6l-27.6-27.6c-2-1.9-2-5.1,0-7.1c1-1,2.2-1.5,3.5-1.5c1.3,0,2.6,0.5,3.5,1.5
		l27.6,27.6l27.6-27.6c1.9-1.9,5.1-1.9,7.1,0c1,1,1.5,2.3,1.5,3.5c0,1.3-0.5,2.6-1.5,3.5l-27.6,27.6l27.6,27.6
		C317.8,298.3,317.8,301.5,315.9,303.4z"/>
</g>
</svg>
