<svg xmlns="http://www.w3.org/2000/svg" xmlns:xlink="http://www.w3.org/1999/xlink" viewBox="0 0 30 30" fill="#F27323">
  <path d="M14.414062 4C13.811063 4.015 13.277641 4.3892187 13.056641 4.9492188L5.5332031 24L5 24 A 1.0001 1.0001 0 1 0 5 26L9 26 A 1.0001 1.0001 0 1 0 9 24L8.7578125 24L10.349609 19.970703C10.399609 19.978703 10.446 20 10.5 20L14.523438 20C14.775438 19.289 15.104578 18.616 15.517578 18L11.126953 18L14.542969 9.3515625L17.494141 15.892578C18.284141 15.279578 19.176531 14.794703 20.144531 14.470703L15.818359 4.8828125C15.569359 4.3328125 15.016062 4.001 14.414062 4 z M 23 16C19.134 16 16 19.134 16 23C16 26.866 19.134 30 23 30C26.866 30 30 26.866 30 23C30 19.134 26.866 16 23 16 z M 26 20C26.25575 20 26.511531 20.097469 26.707031 20.292969C27.098031 20.683969 27.098031 21.316031 26.707031 21.707031L22.707031 25.707031C22.512031 25.902031 22.256 26 22 26C21.744 26 21.487969 25.902031 21.292969 25.707031L19.292969 23.707031C18.901969 23.316031 18.901969 22.683969 19.292969 22.292969C19.683969 21.901969 20.316031 21.901969 20.707031 22.292969L22 23.585938L25.292969 20.292969C25.488469 20.097469 25.74425 20 26 20 z" fill="#F27323" />
</svg>
